<svg viewBox="0 0 72 72" fill="none" xmlns="http://www.w3.org/2000/svg"><g class="72px-开始交易"><g class="Group 1707481075"><path class="started-brand" d="m32.22 31.53-4.945-1.8 4.759-13.075 4.944 1.8 1.19-3.27 3.296 1.2-1.19 3.27 1.649.599a4.412 4.412 0 0 1 1.944 1.399c.506.636.824 1.398.92 2.201a4.317 4.317 0 0 1-1.947 4.137 4.317 4.317 0 0 1-1.168 4.42 4.362 4.362 0 0 1-2.12 1.097c-.796.162-1.623.1-2.388-.178l-1.648-.6-1.19 3.269-3.297-1.2 1.19-3.27Zm.136-5.503-.595 1.634 6.592 2.4c.22.08.46.07.67-.028a.866.866 0 0 0 .421-1.155.88.88 0 0 0-.496-.452l-6.592-2.4Zm1.784-4.904-.595 1.635 6.593 2.4c.219.079.46.069.67-.028a.866.866 0 0 0 .42-1.156.881.881 0 0 0-.495-.451l-6.593-2.4Z" fill="#2354E6"></path><g class="started-normal" fill="#262933"><path d="M36 7.5c-10.217 0-18.5 8.283-18.5 18.5a18.46 18.46 0 0 0 6.521 14.099c-1.23.242-2.398.52-3.492.83A21.429 21.429 0 0 1 14.5 26c0-11.874 9.626-21.5 21.5-21.5S57.5 14.126 57.5 26c0 5.8-2.296 11.063-6.029 14.93a43.75 43.75 0 0 0-3.492-.831A18.46 18.46 0 0 0 54.5 26c0-10.217-8.283-18.5-18.5-18.5Z"></path><path clip-rule="evenodd" d="M22.952 43.297c3.43-.847 8.09-1.355 13.182-1.355 5.092 0 9.752.508 13.182 1.355 1.704.42 3.188.944 4.283 1.583.989.576 2.17 1.552 2.17 3.037 0 1.485-1.181 2.46-2.17 3.037-1.095.64-2.58 1.163-4.283 1.583-3.43.847-8.09 1.355-13.182 1.355-5.092 0-9.752-.508-13.182-1.355-1.703-.42-3.188-.944-4.283-1.583-.989-.576-2.169-1.552-2.169-3.037 0-1.485 1.18-2.46 2.17-3.037 1.094-.64 2.579-1.163 4.282-1.583Zm-3.38 4.62c.089.094.266.246.609.446.74.432 1.912.872 3.49 1.262 3.133.773 7.54 1.267 12.463 1.267 4.923 0 9.33-.494 12.464-1.267 1.578-.39 2.749-.83 3.49-1.262.343-.2.52-.352.608-.446-.088-.093-.265-.246-.609-.446-.74-.432-1.911-.872-3.49-1.262-3.133-.773-7.54-1.267-12.463-1.267-4.923 0-9.33.494-12.463 1.267-1.578.39-2.75.83-3.49 1.262-.343.2-.52.353-.61.446Z" fill-rule="evenodd"></path><path d="M36.134 57.542c-4.928 0-9.341-.468-12.481-1.202-1.582-.37-2.758-.789-3.502-1.2-.373-.206-.568-.373-.654-.47a.366.366 0 0 1-.034-.044.36.36 0 0 1 .037.177h-3c0 .756.334 1.379.74 1.842.397.453.914.82 1.46 1.12 1.09.604 2.57 1.099 4.27 1.496 3.423.8 8.077 1.28 13.164 1.28 5.088 0 9.741-.48 13.164-1.28 1.7-.397 3.18-.892 4.27-1.495.546-.302 1.064-.667 1.46-1.12.406-.464.74-1.087.74-1.843h-3c0-.112.035-.172.037-.176a.384.384 0 0 1-.034.042c-.086.099-.28.265-.653.471-.744.411-1.92.83-3.503 1.2-3.14.734-7.553 1.202-12.48 1.202Zm0 6.857c-4.909 0-9.297-.57-12.41-1.46-1.567-.447-2.727-.952-3.46-1.447-.363-.246-.57-.454-.676-.603a.604.604 0 0 1-.088-.167v-.004h-3c0 1.476 1.035 2.55 2.085 3.26 1.103.744 2.6 1.356 4.314 1.846 3.45.985 8.129 1.575 13.235 1.575s9.785-.59 13.235-1.575c1.715-.49 3.211-1.102 4.314-1.846 1.05-.71 2.085-1.784 2.085-3.26h-3v.004a.604.604 0 0 1-.087.166c-.107.15-.314.358-.677.604-.733.495-1.892 1-3.46 1.447-3.113.89-7.5 1.46-12.41 1.46Z"></path></g></g></g></svg>