<svg viewBox="0 0 72 72" fill="none" xmlns="http://www.w3.org/2000/svg"><g class="72px-创建账号"><g class="Group 1707481079"><g class="started-normal" fill="#262933"><path d="M32.5 25.5c-2.089 0-4-1.89-4-4.5h-3c0 4.017 3.014 7.5 7 7.5s7-3.483 7-7.5h-3c0 2.61-1.911 4.5-4 4.5Z"></path><path clip-rule="evenodd" d="M32.5 8.5c-7.18 0-13 5.82-13 13s5.82 13 13 13 13-5.82 13-13-5.82-13-13-13Zm-10 13c0-5.523 4.477-10 10-10s10 4.477 10 10-4.477 10-10 10-10-4.477-10-10Z" fill-rule="evenodd"></path><path d="M13.5 50c0-7.456 6.044-13.5 13.5-13.5h5v3h-5c-5.799 0-10.5 4.701-10.5 10.5v8.5h14.47v3H13.5V50Z"></path><path clip-rule="evenodd" d="M44.5 36.5c-7.18 0-13 5.82-13 13s5.82 13 13 13 13-5.82 13-13-5.82-13-13-13Zm-10 13c0-5.523 4.477-10 10-10s10 4.477 10 10-4.477 10-10 10-10-4.477-10-10Z" fill-rule="evenodd"></path></g><path class="started-brand" d="M40.222 51.778h6.722a.611.611 0 1 0 0-1.222h-4.888a3.056 3.056 0 1 1 0-6.111h1.222V42h2.444v2.444h3.056v2.445h-6.722a.611.611 0 1 0 0 1.222h4.888a3.056 3.056 0 1 1 0 6.111h-1.222v2.445h-2.444v-2.445h-3.056v-2.444Z" fill="#2354E6"></path></g></g></svg>