<svg viewBox="0 0 72 72" fill="none" xmlns="http://www.w3.org/2000/svg"><g class="72px-入金"><g class="Group 1707481077"><path class="started-brand" d="M29.115 23.17 25.8 21.963l3.192-8.77 3.317 1.207.798-2.193 2.21.805-.797 2.193 1.105.402a2.96 2.96 0 0 1 1.304.938c.34.427.553.938.617 1.477a2.895 2.895 0 0 1-1.306 2.775 2.903 2.903 0 0 1-.784 2.965 2.926 2.926 0 0 1-1.421.735 2.96 2.96 0 0 1-1.602-.12l-1.106-.402-.798 2.193-2.21-.805.797-2.192Zm.092-3.69-.4 1.095 4.423 1.61a.591.591 0 0 0 .45-.018.58.58 0 0 0-.051-1.078l-4.422-1.61Zm1.197-3.29-.399 1.096 4.422 1.61a.59.59 0 0 0 .45-.018.581.581 0 0 0-.05-1.078l-4.423-1.61Z" fill="#2354E6"></path><g class="started-normal" fill="#262933"><path d="M31.97 8.5c-6.221 0-11.265 5.043-11.265 11.265 0 1.498.293 2.928.823 4.235h-3.184a14.258 14.258 0 0 1-.639-4.235c0-7.878 6.387-14.265 14.265-14.265 7.878 0 14.265 6.387 14.265 14.265a14.24 14.24 0 0 1-.64 4.235h-3.183c.53-1.307.823-2.737.823-4.235C43.235 13.543 38.19 8.5 31.97 8.5ZM45.5 48a2.5 2.5 0 1 0 0-5 2.5 2.5 0 0 0 0 5Z"></path><path clip-rule="evenodd" d="M59 34a8 8 0 0 0-8-8H13v38h38a8 8 0 0 0 8-8V34Zm-43-5h35a5 5 0 0 1 5 5v3H45.5a8.5 8.5 0 0 0 0 17H56v2a5 5 0 0 1-5 5H16V29Zm29.5 11H56v11H45.5a5.5 5.5 0 1 1 0-11Z" fill-rule="evenodd"></path></g></g></g></svg>